<svg width="83" height="170" viewBox="0 0 83 170" fill="none" xmlns="http://www.w3.org/2000/svg">
<g clip-path="url(#clip0)">
<path d="M37.5309 126.385C37.1002 125.806 36.4004 125.495 35.6792 125.495C34.3878 125.495 33.5156 126.482 33.5156 127.735C33.5156 129.011 34.3982 129.934 35.7115 129.934C36.4004 129.934 37.0893 129.601 37.5309 129.075V131.595C36.8311 131.809 36.3251 131.97 35.6685 131.97C34.5382 131.97 33.462 131.541 32.6222 130.78C31.729 129.976 31.3198 128.925 31.3198 127.725C31.3198 126.62 31.7397 125.559 32.5144 124.766C33.3111 123.951 34.463 123.458 35.604 123.458C36.2822 123.458 36.9066 123.608 37.5309 123.866V126.385Z" fill="#231F20"/>
<path d="M43.9912 126.792V123.673H46.1009V131.755H43.9912V128.443H40.9449V131.755H38.835V123.673H40.9449V126.792H43.9912Z" fill="#231F20"/>
<path d="M51.0224 126.17H51.0006L50.1292 128.743H51.8839L51.0224 126.17ZM50.9795 120.285L53.3585 122.043L52.5293 122.944L50.9795 121.754L49.4292 122.944L48.633 122.043L50.9795 120.285ZM49.5478 130.351L48.988 131.755H46.7495L49.8705 123.673H52.1743L55.2315 131.755H52.9819L52.4541 130.351H49.5478Z" fill="#231F20"/>
<path d="M59.12 131.755H57.0104V125.452H55.2664V123.673H60.8638V125.452H59.12V131.755Z" fill="#231F20"/>
<path d="M63.7391 125.452V126.802H66.1185V128.582H63.7391V129.976H66.2475V131.755H61.6296V123.673H66.2475V125.452H63.7391Z" fill="#231F20"/>
<path d="M71.0929 126.17H71.0706L70.1993 128.743H71.954L71.0929 126.17ZM69.6178 130.351L69.0579 131.755H66.8196L69.9407 123.673H72.2445L75.302 131.755H73.0522L72.5247 130.351H69.6178Z" fill="#231F20"/>
<path d="M83.0007 123.673V128.219C83.0007 129.258 82.9575 130.287 82.1503 131.07C81.4722 131.734 80.4065 131.97 79.4595 131.97C78.5113 131.97 77.4462 131.734 76.7681 131.07C75.9609 130.287 75.9177 129.258 75.9177 128.219V123.673H78.0277V127.929C78.0277 128.979 78.1027 130.126 79.4595 130.126C80.8151 130.126 80.8907 128.979 80.8907 127.929V123.673H83.0007Z" fill="#231F20"/>
<path d="M46.1776 140.223H46.3816C47.0705 140.223 47.8458 140.094 47.8458 139.216C47.8458 138.337 47.0705 138.207 46.3816 138.207H46.1776V140.223ZM50.8167 144.682H48.1902L46.1992 141.573H46.1776V144.682H44.0676V136.6H47.2212C48.8252 136.6 50.0414 137.361 50.0414 139.087C50.0414 140.201 49.417 141.166 48.2659 141.37L50.8167 144.682Z" fill="#ED1C24"/>
<path d="M53.1763 140.502C53.1763 141.896 54.2095 142.913 55.4689 142.913C56.7288 142.913 57.7615 141.896 57.7615 140.502C57.7615 139.387 56.7288 138.369 55.4689 138.369C54.2095 138.369 53.1763 139.387 53.1763 140.502ZM59.9581 140.491C59.9581 143.106 58.0735 144.951 55.4689 144.951C52.864 144.951 50.9805 143.106 50.9805 140.491C50.9805 138.047 53.1336 136.332 55.4689 136.332C57.805 136.332 59.9581 138.047 59.9581 140.491Z" fill="#ED1C24"/>
<path d="M67.9792 136.6V141.145C67.9792 142.185 67.936 143.214 67.1289 143.996C66.4508 144.661 65.385 144.897 64.4381 144.897C63.4903 144.897 62.4247 144.661 61.747 143.996C60.9397 143.214 60.8967 142.185 60.8967 141.145V136.6H63.0061V140.855C63.0061 141.906 63.0814 143.053 64.4381 143.053C65.7943 143.053 65.8693 141.906 65.8693 140.855V136.6H67.9792Z" fill="#ED1C24"/>
<path d="M77.4117 140.169C77.3901 141.349 77.3037 142.356 76.5824 143.364C75.786 144.468 74.5912 144.951 73.235 144.951C70.684 144.951 68.9077 143.225 68.9077 140.684C68.9077 138.058 70.6948 136.332 73.3107 136.332C74.9789 136.332 76.2703 137.082 76.97 138.594L74.9675 139.43C74.677 138.658 74.0638 138.143 73.2134 138.143C71.8248 138.143 71.1035 139.462 71.1035 140.695C71.1035 141.949 71.8572 143.225 73.2452 143.225C74.161 143.225 74.8601 142.753 74.9465 141.82H73.2242V140.169H77.4117Z" fill="#ED1C24"/>
<path d="M80.4928 138.379V139.73H82.8716V141.509H80.4928V142.903H83.0006V144.682H78.3828V136.6H83.0006V138.379H80.4928Z" fill="#ED1C24"/>
<path d="M83.0006 39.1093C77.2466 31.3733 67.8967 27.2195 58.2586 27.2195C40.9968 27.2195 29.345 40.3986 29.345 57.1593C29.345 74.2074 41.1408 86.527 58.6903 86.527C67.8967 86.527 77.1029 82.0865 83.0006 75.0669V108.732C73.6507 111.597 66.8894 113.746 58.1149 113.746C43.0107 113.746 28.6258 108.016 17.4058 97.8441C5.46629 87.1005 0 73.0612 0 57.0163C0 42.2612 5.61003 28.0783 15.9671 17.4777C26.612 6.59035 42.0037 0.000480652 57.2517 0.000480652C66.3142 0.000480652 74.6574 2.00617 83.0006 5.44415V39.1093Z" fill="#231F20"/>
<path d="M56.0335 54.1685H56.978C60.1592 54.1685 63.7373 53.5748 63.7373 49.516C63.7373 45.4571 60.1592 44.8628 56.978 44.8628H56.0335V54.1685ZM77.4559 74.7603H65.3281L56.133 60.4058H56.0335V74.7603H46.2915V37.4381H60.8548C68.261 37.4381 73.8772 40.9527 73.8772 48.9216C73.8772 54.0697 70.9944 58.5248 65.6763 59.4653L77.4559 74.7603Z" fill="#ED1C24"/>
<path d="M11.775 150.623C11.4522 150.258 11.097 149.968 10.5804 149.968C9.82694 149.968 9.40692 150.59 9.40692 151.277C9.40692 152.22 10.0958 152.659 10.7956 153.131C11.4845 153.613 12.1734 154.128 12.1734 155.242C12.1734 156.422 11.409 157.536 10.139 157.536C9.68693 157.536 9.22395 157.408 8.85801 157.129V156.154C9.20259 156.518 9.65464 156.808 10.1713 156.808C10.9679 156.808 11.409 156.111 11.3983 155.382C11.409 154.439 10.7095 154.021 10.0206 153.538C9.33167 153.066 8.63208 152.541 8.63208 151.384C8.63208 150.301 9.29938 149.239 10.4945 149.239C10.9783 149.239 11.3877 149.401 11.775 149.669V150.623Z" fill="#231F20"/>
<path d="M16.1253 157.204C15.8453 157.397 15.4469 157.536 15.0919 157.536C13.1865 157.536 12.9067 155.06 12.9067 153.678C12.9067 152.37 12.95 149.239 15.1673 149.239C15.4687 149.239 15.8776 149.314 16.1253 149.497V150.322C15.8237 150.119 15.5546 149.968 15.1777 149.968C13.8645 149.968 13.6818 151.866 13.6818 153.367C13.6818 154.31 13.6818 156.808 15.1242 156.808C15.49 156.808 15.8344 156.647 16.1253 156.443V157.204Z" fill="#231F20"/>
<path d="M19.194 148.575L18.7526 148.896L17.3534 147.642L18.0207 147.128L19.194 148.575ZM19.646 150.033H17.8485V152.884H19.5924V153.57H17.8485V156.744H19.646V157.43H17.095V149.347H19.646V150.033Z" fill="#231F20"/>
<path d="M24.1144 157.43H23.4577L21.6279 151.995C21.5094 151.662 21.4449 151.297 21.3478 150.954H21.3051C21.3374 151.48 21.391 151.995 21.391 152.52V157.43H20.7344V149.347H21.391L23.2532 154.964C23.35 155.242 23.4255 155.521 23.5009 155.8H23.5332C23.5116 155.446 23.4577 155.082 23.4577 154.728V149.347H24.1144V157.43Z" fill="#231F20"/>
<path d="M27.9695 150.033H26.1717V152.884H27.9159V153.57H26.1717V156.744H27.9695V157.43H25.4182V149.347H27.9695V150.033Z" fill="#231F20"/>
<path d="M34.2787 157.204C33.9987 157.397 33.6002 157.536 33.2452 157.536C31.3399 157.536 31.0601 155.06 31.0601 153.678C31.0601 152.37 31.103 149.239 33.3207 149.239C33.6221 149.239 34.031 149.314 34.2787 149.497V150.322C33.9771 150.119 33.708 149.968 33.3314 149.968C32.0181 149.968 31.8351 151.866 31.8351 153.367C31.8351 154.31 31.8351 156.808 33.2775 156.808C33.6434 156.808 33.988 156.647 34.2787 156.443V157.204Z" fill="#231F20"/>
<path d="M35.7868 153.388C35.7868 154.814 35.8404 156.808 37.0027 156.808C38.1655 156.808 38.2194 154.814 38.2194 153.388C38.2194 151.963 38.1655 149.968 37.0027 149.968C35.8404 149.915 35.7868 151.963 35.7868 153.388ZM38.9945 153.388C38.9945 154.899 38.8867 157.536 37.0027 157.536C35.227 157.536 35.0115 155.275 35.0115 153.388C35.0115 151.341 35.2806 149.239 37.0027 149.239C38.8328 149.239 38.9945 151.608 38.9945 153.388Z" fill="#231F20"/>
<path d="M43.4305 157.43H42.7739L40.944 151.995C40.8256 151.662 40.7611 151.297 40.664 150.954H40.6213C40.6536 151.48 40.7072 151.995 40.7072 152.52V157.43H40.0505V149.347H40.7072L42.5693 154.964C42.6662 155.242 42.7416 155.521 42.8171 155.8H42.8491C42.8278 155.446 42.7739 155.082 42.7739 154.728V149.347H43.4305V157.43Z" fill="#231F20"/>
<path d="M46.5103 157.43H45.8433L44.2073 149.347H44.9821L46.0478 155.232C46.0907 155.435 46.1334 155.961 46.1772 156.325H46.2199C46.2521 155.961 46.2948 155.425 46.3273 155.232L47.3822 149.347H48.147L46.5103 157.43Z" fill="#231F20"/>
<path d="M51.4743 150.033H49.677V152.884H51.4205V153.57H49.677V156.744H51.4743V157.43H48.9236V149.347H51.4743V150.033Z" fill="#231F20"/>
<path d="M55.943 157.43H55.2864L53.4562 151.995C53.3376 151.662 53.273 151.297 53.1762 150.954H53.1335C53.1658 151.48 53.2196 151.995 53.2196 152.52V157.43H52.563V149.347H53.2196L55.0815 154.964C55.1784 155.242 55.2541 155.521 55.3293 155.8H55.3613C55.3397 155.446 55.2864 155.082 55.2864 154.728V149.347H55.943V157.43Z" fill="#231F20"/>
<path d="M59.8724 150.033H58.6564V157.43H57.903V150.033H56.6865V149.347H59.8724V150.033Z" fill="#231F20"/>
<path d="M61.3486 157.43H60.5952V149.347H61.3486V157.43Z" fill="#231F20"/>
<path d="M63.1788 153.388C63.1788 154.814 63.233 156.808 64.3957 156.808C65.5581 156.808 65.6121 154.814 65.6121 153.388C65.6121 151.963 65.5581 149.968 64.3957 149.968C63.233 149.915 63.1788 151.963 63.1788 153.388ZM66.3862 153.388C66.3862 154.899 66.2787 157.536 64.3957 157.536C62.6193 157.536 62.4038 155.275 62.4038 153.388C62.4038 151.341 62.6731 149.239 64.3957 149.239C66.2247 149.239 66.3862 151.608 66.3862 153.388Z" fill="#231F20"/>
<path d="M70.8232 157.43H70.1667L68.3364 151.995C68.2176 151.662 68.1534 151.297 68.0562 150.954H68.0136C68.046 151.48 68.1 151.995 68.1 152.52V157.43H67.4429V149.347H68.1L69.9615 154.964C70.0587 155.242 70.1343 155.521 70.2093 155.8H70.2417C70.2201 155.446 70.1667 155.082 70.1667 154.728V149.347H70.8232V157.43Z" fill="#231F20"/>
<path d="M75.5065 157.43H74.85L73.0196 151.995C72.9008 151.662 72.8366 151.297 72.7394 150.954H72.6968C72.7292 151.48 72.7832 151.995 72.7832 152.52V157.43H72.1267V149.347H72.7832L74.6453 154.964C74.7419 155.242 74.8175 155.521 74.8925 155.8H74.9249C74.9033 155.446 74.85 155.082 74.85 154.728V149.347H75.5065V157.43Z" fill="#231F20"/>
<path d="M79.2535 147.642L77.8541 148.896L77.413 148.575L78.597 147.128L79.2535 147.642ZM79.3609 150.033H77.5636V152.884H79.3069V153.57H77.5636V156.744H79.3609V157.43H76.8105V149.347H79.3609V150.033Z" fill="#231F20"/>
<path d="M83.0007 150.033H81.2034V152.884H82.9467V153.57H81.2034V156.744H83.0007V157.43H80.4497V149.347H83.0007V150.033Z" fill="#231F20"/>
<path d="M16.3623 164.201H16.3407L15.4688 166.773H17.2235L16.3623 164.201ZM14.8877 168.381L14.3278 169.786H12.0889L15.2106 161.703H17.5142L20.5709 169.786H18.3212L17.7939 168.381H14.8877Z" fill="#231F20"/>
<path d="M21.2302 161.703H23.3399L27.2042 166.645H27.2257V161.703H29.3357V169.786H27.2257L23.3615 164.833H23.3399V169.786H21.2302V161.703Z" fill="#231F20"/>
<path d="M30.7163 161.703H32.826L36.6905 166.645H36.7119V161.703H38.8218V169.786H36.7119L32.8475 164.833H32.826V169.786H30.7163V161.703Z" fill="#231F20"/>
<path d="M42.3123 163.483V164.833H44.6908V166.612H42.3123V168.006H44.8199V169.786H40.2024V161.703H44.8199V163.483H42.3123Z" fill="#231F20"/>
<path d="M47.0182 161.703H49.0956L50.742 166.023L52.486 161.703H54.585L55.8118 169.786H53.7024L53.1104 165.133H53.0888L51.1404 169.786H50.3006L48.439 165.133H48.4171L47.7394 169.786H45.6404L47.0182 161.703Z" fill="#231F20"/>
<path d="M60.25 164.201H60.2282L59.3568 166.773H61.1114L60.25 164.201ZM58.7753 168.381L58.2156 169.786H55.9771L59.0981 161.703H61.4019L64.459 169.786H62.2092L61.6817 168.381H58.7753Z" fill="#231F20"/>
<path d="M69.5738 163.782C69.1868 163.461 68.6911 163.246 68.1751 163.246C67.7867 163.246 67.2707 163.472 67.2707 163.922C67.2707 164.393 67.8408 164.576 68.2075 164.694L68.7451 164.854C69.8757 165.187 70.7477 165.755 70.7477 167.063C70.7477 167.866 70.5538 168.692 69.9075 169.239C69.2726 169.775 68.4223 170 67.6037 170C66.5818 170 65.5808 169.657 64.7515 169.078L65.6558 167.384C66.1833 167.846 66.8074 168.22 67.5287 168.22C68.0244 168.22 68.5519 167.974 68.5519 167.406C68.5519 166.816 67.7226 166.612 67.2707 166.484C65.9463 166.108 65.075 165.765 65.075 164.201C65.075 162.56 66.2481 161.489 67.8732 161.489C68.6911 161.489 69.6927 161.745 70.4134 162.153L69.5738 163.782Z" fill="#231F20"/>
<path d="M76.2069 163.782C75.8192 163.461 75.3242 163.246 74.8075 163.246C74.4198 163.246 73.9038 163.472 73.9038 163.922C73.9038 164.393 74.4738 164.576 74.8399 164.694L75.3782 164.854C76.5082 165.187 77.3801 165.755 77.3801 167.063C77.3801 167.866 77.1869 168.692 76.5406 169.239C75.9057 169.775 75.0553 170 74.2368 170C73.2148 170 72.2133 169.657 71.3845 169.078L72.2882 167.384C72.8164 167.846 73.4405 168.22 74.1618 168.22C74.6569 168.22 75.1843 167.974 75.1843 167.406C75.1843 166.816 74.355 166.612 73.9038 166.484C72.5793 166.108 71.7074 165.765 71.7074 164.201C71.7074 162.56 72.8806 161.489 74.5062 161.489C75.3242 161.489 76.3251 161.745 77.0464 162.153L76.2069 163.782Z" fill="#231F20"/>
<path d="M80.4928 163.483V164.833H82.8716V166.612H80.4928V168.006H83.0006V169.786H78.3828V161.703H83.0006V163.483H80.4928Z" fill="#231F20"/>
</g>
<defs>
<clipPath id="clip0">
<rect width="83" height="170" fill="white"/>
</clipPath>
</defs>
</svg>
